<svg aria-hidden="true" style="position: absolute; width: 0; height: 0; overflow: hidden;"
    version="1.1" xmlns="http://www.w3.org/2000/svg" xmlns:xlink="http://www.w3.org/1999/xlink">
    <defs>
        <symbol id="linkedin" viewBox="0 0 32 32">
            <path
                d="M26.304 4.8h-20.608c-0.496 0-0.896 0.4-0.896 0.896v20.608c0 0.496 0.4 0.896 0.896 0.896h20.608c0.496 0 0.896-0.4 0.896-0.896v-20.608c0-0.496-0.4-0.896-0.896-0.896zM11.444 23.888h-3.324v-10.69h3.324v10.69zM9.784 11.736c-0.381 0-0.753-0.113-1.070-0.325s-0.564-0.513-0.71-0.865c-0.146-0.352-0.184-0.739-0.11-1.113s0.258-0.717 0.527-0.986c0.269-0.269 0.613-0.453 0.986-0.527s0.761-0.036 1.113 0.11c0.352 0.146 0.653 0.393 0.865 0.71s0.325 0.689 0.325 1.070c-0.003 1.064-0.865 1.926-1.926 1.926zM23.888 23.888h-3.321v-5.2c0-1.24-0.022-2.834-1.728-2.834-1.728 0-1.994 1.35-1.994 2.744v5.289h-3.318v-10.69h3.186v1.462h0.045c0.442-0.84 1.526-1.728 3.144-1.728 3.366 0 3.984 2.215 3.984 5.093v5.863z"></path>
        </symbol>
        <symbol id="facebook" viewBox="0 0 32 32">
            <path
                d="M26.933 16.179c0-5.839-4.779-10.579-10.667-10.579s-10.667 4.739-10.667 10.579c0 5.12 3.669 9.383 8.533 10.367v-7.193h-2.133v-3.174h2.133v-2.645c0-2.042 1.675-3.703 3.733-3.703h2.667v3.174h-2.133c-0.587 0-1.067 0.476-1.067 1.058v2.116h3.2v3.174h-3.2v7.352c5.387-0.529 9.6-5.035 9.6-10.526z"></path>
        </symbol>
        <symbol id="instagram" viewBox="0 0 32 32">
            <path
                d="M19.9 5.6h-7.8c-3.589 0-6.5 2.887-6.5 6.446v7.736c0 3.56 2.911 6.446 6.5 6.446h7.8c3.589 0 6.5-2.887 6.5-6.446v-7.736c0-3.56-2.911-6.446-6.5-6.446zM24.45 19.782c0 2.488-2.041 4.512-4.55 4.512h-7.8c-2.509 0-4.55-2.024-4.55-4.512v-7.736c0-2.488 2.041-4.513 4.55-4.513h7.8c2.509 0 4.55 2.024 4.55 4.513v7.736z"></path>
            <path
                d="M16 10.757c-2.872 0-5.2 2.309-5.2 5.157s2.328 5.157 5.2 5.157c2.872 0 5.2-2.309 5.2-5.157s-2.328-5.157-5.2-5.157zM16 19.137c-1.791 0-3.25-1.447-3.25-3.223 0-1.778 1.459-3.223 3.25-3.223s3.25 1.445 3.25 3.223c0 1.777-1.459 3.223-3.25 3.223z"></path>
            <path
                d="M21.59 11.058c0.383 0 0.693-0.308 0.693-0.687s-0.31-0.687-0.693-0.687c-0.383 0-0.693 0.308-0.693 0.687s0.31 0.687 0.693 0.687z"></path>
        </symbol>
        <symbol id="telegram" viewBox="0 0 32 32">
            <path
                d="M26.557 7.689c-0.26-0.315-0.65-0.489-1.097-0.489-0.243 0-0.501 0.051-0.765 0.151l-18.018 6.821c-0.956 0.362-1.085 0.905-1.077 1.197s0.168 0.827 1.143 1.134c0.006 0.002 0.012 0.004 0.018 0.005l2.527 0.717 12.306-6.235c0.307-0.156 0.682-0.035 0.839 0.269 0.123 0.239 0.074 0.52-0.102 0.705l-6.842 7.211-0.195 0.784 5.829 4.655c0.003 0.002 0.006 0.005 0.009 0.007 0.373 0.287 0.78 0.438 1.177 0.438 0.777 0 1.395-0.57 1.575-1.452l2.952-14.457c0.118-0.58 0.019-1.1-0.28-1.462z"></path>
            <path
                d="M14.318 18.721c0.025-0.1 0.075-0.195 0.151-0.276l4.49-4.731-8.332 4.221 1.892 5.366c0.108 0.306 0.268 0.566 0.467 0.77l1.332-5.35z"></path>
            <path
                d="M14.148 24.568c0.45-0.004 0.892-0.192 1.279-0.545l1.384-1.264-1.845-1.474-0.817 3.283z"></path>
        </symbol>
    </defs>
</svg>